<svg xmlns="http://www.w3.org/2000/svg" xmlns:xlink="http://www.w3.org/1999/xlink" version="1.1" x="0px" y="0px" viewBox="0 0 100 125" enable-background="new 0 0 100 100" xml:space="preserve"><path d="M45.816,49.429c0.08-0.408,0.241-0.788,0.465-1.123C46.056,48.641,45.896,49.021,45.816,49.429z"/><path d="M45.995,51.24c-0.079-0.188-0.139-0.385-0.179-0.59C45.856,50.854,45.916,51.052,45.995,51.24z"/><path d="M49.271,50.89c-0.009,0.005-0.015,0.013-0.024,0.017C49.255,50.902,49.262,50.895,49.271,50.89z"/><path d="M47.938,50.042c0,0.519,0.422,0.938,0.943,0.938C48.36,50.98,47.938,50.559,47.938,50.042z"/><path d="M22.793,46.976c0.408,0.081,0.789,0.242,1.123,0.467C23.582,47.217,23.201,47.056,22.793,46.976z"/><path d="M27.658,47.798c0.111,0.271,0.203,0.554,0.271,0.843h0.001C27.862,48.352,27.77,48.07,27.658,47.798L27.658,47.798z"/><path d="M21.241,50.042c0,0.519,0.422,0.938,0.941,0.938C21.663,50.98,21.241,50.559,21.241,50.042z"/><path d="M59.844,48.309c-0.023,0.098-0.102,0.219-0.195,0.332C59.743,48.528,59.82,48.407,59.844,48.309z"/><path d="M56.539,44.242c1.416,1.104,2.771,1.119,3.293,1.071c0,0,0,0,0-0.001C59.311,45.36,57.955,45.345,56.539,44.242  c-1.265-0.991-1.418-1.807-1.396-2.208C55.121,42.436,55.274,43.252,56.539,44.242z"/><rect x="33.375" y="40.706" width="13.751" height="0.001"/><path d="M21.572,53.105c-0.41-0.084-0.791-0.244-1.125-0.467C20.781,52.861,21.162,53.023,21.572,53.105z"/><path d="M49.49,46.976c0.41,0.081,0.789,0.242,1.123,0.467C50.279,47.217,49.9,47.056,49.49,46.976z"/><path d="M51.763,51.24c0.079-0.188,0.14-0.386,0.181-0.59C51.902,50.855,51.842,51.053,51.763,51.24z"/><path d="M48.269,53.105c-0.41-0.084-0.789-0.244-1.123-0.467C47.48,52.861,47.859,53.023,48.269,53.105z"/><path d="M91.324,47.425l-4.574-12.02H70.488v22.701l-0.955,1h-2.813v7.345h1.377c-0.009-0.181-0.017-0.359-0.017-0.54  c0-4.846,3.927-8.775,8.772-8.775c4.848,0,8.777,3.928,8.777,8.775c0,0.181-0.008,0.359-0.02,0.54h10.578V52.956L91.324,47.425z   M77.4,54.745h-1.717v-3.959H77.4V54.745z M75.301,48.093V36.677h10.572l4.346,11.416H75.301z"/><rect x="49.291" y="59.37" width="15.355" height="8.489"/><path d="M41.66,65.91c0,0.238-0.01,0.475-0.029,0.709h4.705V59.37h-7.6C40.531,60.977,41.66,63.311,41.66,65.91z"/><path d="M27.035,59.37h-3.711c0.74,0.676,1.365,1.476,1.844,2.364C25.65,60.843,26.285,60.044,27.035,59.37z"/><path d="M32.889,59.329c-3.627,0-6.582,2.955-6.582,6.581c0,3.622,2.955,6.579,6.582,6.579c3.623,0,6.578-2.957,6.578-6.579  C39.467,62.284,36.512,59.329,32.889,59.329z M32.889,69.366c-1.912,0-3.461-1.548-3.461-3.456c0-1.911,1.549-3.458,3.461-3.458  c1.908,0,3.455,1.547,3.455,3.458C36.344,67.818,34.797,69.366,32.889,69.366z"/><path d="M76.854,59.329c-3.623,0-6.58,2.955-6.58,6.581c0,3.622,2.957,6.579,6.58,6.579c3.625,0,6.582-2.957,6.582-6.579  C83.436,62.284,80.479,59.329,76.854,59.329z M76.854,69.366c-1.908,0-3.457-1.548-3.457-3.457s1.549-3.457,3.457-3.457  c1.91,0,3.457,1.548,3.457,3.457S78.764,69.366,76.854,69.366z"/><path d="M76.854,63.464c-1.348,0-2.442,1.097-2.442,2.446c0,0.105,0.008,0.212,0.021,0.316c0.155-0.924,1.184-1.64,2.424-1.64  c1.244,0,2.271,0.716,2.428,1.64c0.014-0.104,0.02-0.211,0.02-0.316C79.301,64.561,78.203,63.464,76.854,63.464z"/><path d="M32.889,63.464c-1.352,0-2.447,1.097-2.447,2.446c0,0.105,0.006,0.212,0.021,0.316c0.154-0.924,1.182-1.64,2.426-1.64  c1.24,0,2.268,0.716,2.422,1.64c0.014-0.104,0.02-0.211,0.02-0.316C35.33,64.561,34.236,63.464,32.889,63.464z"/><path d="M68.207,27.517l-2.385-0.006v27.068l-16.9-0.031c-0.014,0-0.027,0.004-0.041,0.004c-0.015,0-0.028-0.004-0.043-0.004  l-26.13-0.049c-0.175,0.021-0.346,0.053-0.526,0.053c-0.187,0-0.365-0.033-0.545-0.055L5.059,54.466l-1.248,2.496l64.396,0.121  V27.517z"/><path d="M17.365,59.329c-3.625,0-6.582,2.955-6.582,6.581c0,3.622,2.957,6.579,6.582,6.579c3.623,0,6.58-2.957,6.58-6.579  C23.945,62.284,20.988,59.329,17.365,59.329z M17.365,69.366c-1.91,0-3.457-1.548-3.457-3.457s1.547-3.457,3.457-3.457  c1.909,0,3.457,1.548,3.457,3.457S19.274,69.366,17.365,69.366z"/><path d="M17.365,63.464c-1.35,0-2.445,1.097-2.445,2.446c0,0.105,0.006,0.212,0.02,0.316c0.156-0.924,1.182-1.64,2.426-1.64  c1.24,0,2.268,0.716,2.422,1.64c0.014-0.104,0.021-0.211,0.021-0.316C19.809,64.561,18.715,63.464,17.365,63.464z"/><path d="M11.623,59.37H4.025v7.249h4.702c-0.019-0.234-0.029-0.471-0.029-0.709C8.698,63.311,9.83,60.977,11.623,59.37z"/><path d="M10.728,51.182h4.016h2.307c-0.082-0.369-0.125-0.749-0.125-1.14c0-2.906,2.354-5.258,5.256-5.258  c2.902,0,5.256,2.352,5.256,5.258c0,0.391-0.045,0.772-0.125,1.14h16.435c-0.08-0.369-0.123-0.749-0.123-1.14  c0-2.906,2.352-5.258,5.256-5.258c2.901,0,5.256,2.352,5.256,5.258c0,0.391-0.045,0.772-0.127,1.14h2.381  c4.066-1.339,4.115-2.825,4.115-2.825s0-2.232,0-2.777s-0.043-1.111-0.818-2.455c-0.773-1.342-1.811-1.438-1.811-1.438l-9.469-1.637  c0,0-5.551-4.61-7.014-5.725c-1.465-1.116-2.654-0.917-2.654-0.917H19.709c0,0-0.847,0.102-0.939,0.328  c-0.097,0.225-0.525,0.993-0.525,0.993l-3.449,5.978h-3c0,0-1.492-0.074-1.793,0.444c-0.311,0.539-0.911,6.708-0.911,6.807  C9.092,50.437,10.728,51.182,10.728,51.182z M55.16,41.888l2.633,0.455l0.014,0.002c0.533,0.07,1.062,0.682,1.31,1.109  c0.356,0.621,0.657,1.172,0.717,1.858h-0.001c0,0,0,0,0,0.001c-0.521,0.048-1.877,0.033-3.293-1.071  c-1.265-0.99-1.418-1.807-1.396-2.208C55.146,41.977,55.152,41.928,55.16,41.888z M59.844,47.798v0.511  c-0.023,0.098-0.101,0.219-0.195,0.332h-5.02c-0.07-0.289-0.162-0.572-0.273-0.843H59.844z M23.709,42.839h-2.307  c-0.226,0-0.408-0.184-0.408-0.408c0-0.225,0.181-0.41,0.408-0.41h2.307c0.225,0,0.408,0.185,0.408,0.41  C24.117,42.654,23.934,42.839,23.709,42.839z M43.131,48.641L43.131,48.641H27.93h-0.001c-0.068-0.289-0.16-0.572-0.271-0.843h0.001  h15.743C43.293,48.069,43.201,48.352,43.131,48.641z M33.375,40.706V34.73v-0.001h5.365h0.109l0.082-0.015  c0.529-0.044,1.266,0.36,1.662,0.661c1.123,0.856,2.227,1.783,3.322,2.68c1.072,0.881,2.143,1.764,3.211,2.651l0,0  c0,0,0,0,0.001,0.001L33.375,40.706L33.375,40.706z M33.648,42.021h2.305c0.225,0,0.408,0.185,0.408,0.41  c0,0.223-0.183,0.408-0.408,0.408h-2.305c-0.224,0-0.41-0.184-0.41-0.408C33.238,42.206,33.423,42.021,33.648,42.021z   M20.914,34.729h2.281h8.645v5.978H19.746h-2.285L20.914,34.729z M9.754,47.958c0-0.053,0.002-0.106,0.004-0.16h6.947  c-0.109,0.271-0.201,0.554-0.271,0.843H9.805C9.77,48.416,9.754,48.187,9.754,47.958z"/><path d="M49.49,46.976v1.589l1.123-1.122C50.279,47.218,49.9,47.057,49.49,46.976z"/><path d="M50.354,50.65l1.123,1.123c0.111-0.167,0.208-0.346,0.286-0.533c0.079-0.188,0.14-0.385,0.181-0.59H50.354z"/><path d="M51.943,49.429c-0.082-0.408-0.244-0.788-0.467-1.123l-1.124,1.123H51.943z"/><path d="M49.49,53.104c0.41-0.082,0.789-0.242,1.123-0.467l-1.123-1.121V53.104z"/><path d="M47.938,50.042c0,0.517,0.422,0.938,0.943,0.938c0.129,0,0.253-0.026,0.365-0.074c0.009-0.004,0.016-0.012,0.024-0.017  c0.322-0.148,0.549-0.471,0.549-0.848c0-0.523-0.422-0.944-0.939-0.944C48.36,49.098,47.938,49.519,47.938,50.042z"/><path d="M48.269,53.105v-1.59l-1.123,1.123C47.48,52.861,47.859,53.021,48.269,53.105z"/><path d="M48.27,46.977c-0.41,0.08-0.789,0.241-1.123,0.467l1.123,1.122V46.977z"/><path d="M45.816,50.65c0.04,0.205,0.1,0.402,0.179,0.59c0.078,0.188,0.174,0.366,0.287,0.533l1.125-1.123H45.816z"/><path d="M46.281,48.306c-0.224,0.335-0.385,0.715-0.465,1.123h1.59L46.281,48.306z"/><path d="M48.922,54.548c2.471-0.023,4.471-2.03,4.471-4.506c0-2.493-2.021-4.513-4.512-4.513c-2.492,0-4.514,2.02-4.514,4.513  c0,2.473,1.999,4.481,4.471,4.506c0.015,0,0.028,0.004,0.043,0.004C48.895,54.552,48.908,54.548,48.922,54.548z M45.408,50.042  c0-1.919,1.555-3.473,3.473-3.473c1.914,0,3.469,1.554,3.469,3.473c0,1.914-1.555,3.469-3.469,3.469  C46.963,53.511,45.408,51.956,45.408,50.042z"/><path d="M21.241,50.042c0,0.517,0.422,0.938,0.941,0.938s0.943-0.422,0.943-0.938c0-0.523-0.424-0.944-0.943-0.944  C21.662,49.098,21.241,49.519,21.241,50.042z"/><path d="M25.246,49.429c-0.08-0.408-0.242-0.788-0.467-1.123l-1.123,1.123H25.246z"/><path d="M22.793,46.976v1.589l1.123-1.122C23.582,47.218,23.201,47.057,22.793,46.976z"/><path d="M21.57,46.977c-0.408,0.08-0.789,0.241-1.123,0.467l1.123,1.122V46.977z"/><path d="M21.572,53.105v-1.59l-1.125,1.123C20.781,52.861,21.162,53.021,21.572,53.105z"/><path d="M22.793,53.104c0.408-0.082,0.789-0.242,1.123-0.467l-1.123-1.121V53.104z"/><path d="M19.584,48.306c-0.223,0.335-0.385,0.715-0.465,1.123h1.588L19.584,48.306z"/><path d="M24.779,51.773c0.225-0.334,0.387-0.715,0.467-1.123h-1.59L24.779,51.773z"/><path d="M19.119,50.65c0.08,0.408,0.242,0.789,0.465,1.123l1.123-1.123H19.119z"/><path d="M22.708,54.499c2.241-0.264,3.986-2.147,3.986-4.457c-0.001-2.493-2.02-4.513-4.512-4.513c-2.492,0-4.512,2.02-4.512,4.513  c0,2.301,1.735,4.183,3.967,4.455c0.181,0.021,0.358,0.055,0.545,0.055C22.362,54.552,22.533,54.52,22.708,54.499z M18.711,50.042  c0-1.919,1.555-3.473,3.471-3.473c1.918,0,3.469,1.554,3.469,3.473c0,1.914-1.551,3.469-3.469,3.469  C20.266,53.511,18.711,51.956,18.711,50.042z"/><text x="0" y="115" fill="#000000" font-size="5px" font-weight="bold" font-family="'Helvetica Neue', Helvetica, Arial-Unicode, Arial, Sans-serif">Created by Strongicon</text><text x="0" y="120" fill="#000000" font-size="5px" font-weight="bold" font-family="'Helvetica Neue', Helvetica, Arial-Unicode, Arial, Sans-serif">from the Noun Project</text></svg>